<svg width="122" height="38" viewBox="0 0 122 38" fill="none" xmlns="http://www.w3.org/2000/svg">
<path d="M6.104 24.432L14.456 14.832V14.544H8.96V16.176H6.752C6.48 15.312 6.344 14.368 6.344 13.344V12.168H17.48V14.88L9.224 24.336V24.672H15.176V22.992H17.384C17.656 23.856 17.792 24.8 17.792 25.824V27H6.104V24.432ZM19.619 26.808C20.275 24.344 21.019 21.8 21.851 19.176C22.683 16.552 23.499 14.216 24.299 12.168H28.427C29.227 14.216 30.043 16.552 30.875 19.176C31.707 21.8 32.451 24.344 33.107 26.808L30.323 27L29.891 25.296C29.571 24.048 29.323 23.112 29.147 22.488H23.555C23.075 24.232 22.691 25.736 22.403 27L19.619 26.808ZM28.499 20.16C27.731 17.6 27.147 15.752 26.747 14.616H26.003C25.459 16.136 24.867 17.984 24.227 20.16H28.499ZM35.5556 12.168H45.7796V14.592H38.1956V18.552H44.5556V20.904H38.1956V27H35.5556V12.168ZM58.25 27.168C57.69 27.168 57.25 27.072 56.93 26.88C56.61 26.688 56.354 26.376 56.162 25.944L54.818 23.088C54.61 22.64 54.426 22.304 54.266 22.08C54.106 21.856 53.874 21.672 53.57 21.528C53.266 21.384 52.858 21.312 52.346 21.312H50.594V27H47.954V12.6C49.442 12.152 50.946 11.928 52.466 11.928C54.37 11.928 55.81 12.288 56.786 13.008C57.762 13.728 58.25 14.848 58.25 16.368C58.25 18.304 57.362 19.696 55.586 20.544V20.76C55.986 20.92 56.322 21.12 56.594 21.36C56.866 21.6 57.114 21.92 57.338 22.32L58.898 25.248L60.002 25.464V26.952C59.554 27.096 58.97 27.168 58.25 27.168ZM54.338 19.056C54.77 18.8 55.09 18.48 55.298 18.096C55.522 17.696 55.634 17.192 55.634 16.584C55.634 15.736 55.378 15.144 54.866 14.808C54.37 14.456 53.562 14.28 52.442 14.28C51.706 14.28 51.09 14.336 50.594 14.448V19.056H54.338ZM61.3612 26.808C62.0172 24.344 62.7612 21.8 63.5932 19.176C64.4252 16.552 65.2412 14.216 66.0412 12.168H70.1692C70.9692 14.216 71.7852 16.552 72.6172 19.176C73.4492 21.8 74.1932 24.344 74.8492 26.808L72.0652 27L71.6332 25.296C71.3132 24.048 71.0652 23.112 70.8892 22.488H65.2972C64.8172 24.232 64.4332 25.736 64.1452 27L61.3612 26.808ZM70.2412 20.16C69.4732 17.6 68.8892 15.752 68.4892 14.616H67.7452C67.2012 16.136 66.6092 17.984 65.9692 20.16H70.2412ZM76.3378 26.808C76.9938 24.344 77.7378 21.8 78.5698 19.176C79.4018 16.552 80.2178 14.216 81.0178 12.168H85.1458C85.9458 14.216 86.7618 16.552 87.5938 19.176C88.4258 21.8 89.1698 24.344 89.8258 26.808L87.0418 27L86.6098 25.296C86.2898 24.048 86.0418 23.112 85.8658 22.488H80.2738C79.7938 24.232 79.4098 25.736 79.1217 27L76.3378 26.808ZM85.2178 20.16C84.4498 17.6 83.8658 15.752 83.4658 14.616H82.7218C82.1778 16.136 81.5858 17.984 80.9458 20.16H85.2178ZM92.2743 12.168H95.5143L101.682 23.64L101.874 23.592L101.61 19.776V12.168H104.274V27H101.034L94.8423 15.528L94.6503 15.576L94.9143 19.416V27H92.2743V12.168Z" fill="black"/>
</svg>
